<?xml version="1.0" encoding="utf-8"?>
<svg viewBox="-105.978 -125.2 1290.54 747.401" width="1290.54" height="747.401" xmlns="http://www.w3.org/2000/svg">
  <path class="st0" d="M 527.933 -111.944 C 470.363 -111.843 389.288 -111.441 388.484 -111.139 C 514.292 -56.588 629.225 50.232 647.899 159.196 C 682.306 359.962 590.333 534.003 374.245 607.977 C 362.872 611.903 362.872 611.903 375.454 611.903 C 618.513 613.211 798.872 493.242 827.958 310.871 C 829.972 298.491 825.643 299.598 874.356 299.195 C 925.384 298.692 939.474 296.478 962.522 284.803 C 1008.618 261.554 1038.208 207.306 1043.643 136.149 C 1044.65 122.562 1043.14 124.373 1056.023 121.857 C 1110.473 111.39 1147.812 74.754 1163.311 16.682 C 1172.37 -17.236 1172.168 -100.068 1162.908 -110.032 M 1046.763 -63.332 C 1005.397 -62.627 906.161 -61.722 737.277 -60.715 C 618.212 -60.011 631.095 -60.615 635.221 -56.187 C 741.1 56.739 779.849 221.195 734.056 363.911 C 708.29 444.328 610.26 538.532 512.031 577.281 C 498.041 582.817 500.456 582.615 517.867 576.878 C 689.469 520.315 784.882 422.387 784.982 302.819 C 784.982 261.453 807.024 248.269 878.584 246.658 C 923.07 245.652 932.228 244.142 948.834 234.882 C 979.129 218.075 997.547 185.063 1002.982 137.96 C 1004.593 123.769 1015.864 125.279 915.822 125.782 C 827.758 126.184 827.758 126.184 823.329 122.763 C 807.93 110.987 810.547 81.095 827.657 74.653 C 829.066 74.151 872.746 73.446 931.121 73.043 C 1035.893 72.339 1040.221 72.238 1057.23 67.81 C 1107.755 54.726 1129.797 18.695 1129.797 -50.752 C 1129.797 -65.546 1134.628 -64.841 1046.763 -63.332" style="clip-rule: evenodd; fill-rule: evenodd; fill: rgb(255, 255, 255);" transform="matrix(1, 0, 0, 1, 2.2737367544323206e-13, 5.684341886080802e-14)"/>
  <ellipse style="paint-order: fill; stroke: rgb(255, 255, 255); fill: rgba(216, 216, 216, 0); stroke-width: 80px;" cx="274.695" cy="248.581" rx="322.853" ry="322.853" transform="matrix(1, 0, 0, 1, 2.2737367544323206e-13, 5.684341886080802e-14)"/>
</svg>